# xmcd
#
# Track frame offsets:
#	150
#	14710
#	31481
#	46227
#	66939
#	91485
#	108630
#	130089
#	159329
#	175603
#	192280
#	207539
#	223775
#	259254
#
# Disc length: 3675 seconds
#
# Revision: 0
# Processed by: cddbd v1.4PL0 Copyright (c) Steve Scherf et al.
# Submitted via: dBpowerAMP V4.0
#
DISCID=ce0e590e
DTITLE=Eric Clapton  - Unplugged
DYEAR=1900
DGENRE=Blues
TTITLE0=Signe 
TTITLE1=Before You Accuse Me 
TTITLE2=Hey Hey 
TTITLE3=Tears in Heaven 
TTITLE4=Lonely Stranger 
TTITLE5=Nobody Knows You When You're Down and Out
TTITLE6=Layla 
TTITLE7=Running on Faith 
TTITLE8=Walkin' Blues 
TTITLE9=Alberta 
TTITLE10=San Francisco Bay Blues 
TTITLE11=Malted Milk 
TTITLE12=Old Love 
TTITLE13=Rollin' and Tumblin' 
EXTD=
EXTT0=
EXTT1=
EXTT2=
EXTT3=
EXTT4=
EXTT5=
EXTT6=
EXTT7=
EXTT8=
EXTT9=
EXTT10=
EXTT11=
EXTT12=
EXTT13=
PLAYORDER=
